<svg xmlns="http://www.w3.org/2000/svg" width="1280" height="640" viewBox="0 0 1280 640" role="img" aria-labelledby="title description">
  <title id="title">Viset</title>
  <desc id="description">The Viset capture mark and wordmark on a dark social card.</desc>
  <defs>
    <clipPath id="card-clip">
      <rect x="10" y="10" width="1260" height="620" rx="56"/>
    </clipPath>
  </defs>
  <rect x="10" y="10" width="1260" height="620" rx="56" fill="#071a36" fill-opacity="0.97" stroke="#10c5e8" stroke-width="4" stroke-opacity="0.7"/>
  <g clip-path="url(#card-clip)">
    <circle cx="1160" cy="90" r="220" fill="#10c5e8" opacity="0.055"/>
    <circle cx="1110" cy="585" r="285" fill="#10c5e8" opacity="0.035"/>
  </g>
  <path d="M480 408H1136" stroke="#10c5e8" stroke-width="4" opacity="0.65"/>
  <rect x="96" y="160" width="320" height="320" rx="64" fill="#f8fafc" stroke="#10c5e8" stroke-width="3" stroke-opacity="0.75"/>
  <g transform="translate(96 160) scale(1.25) translate(-0 -0)" aria-hidden="true">
<g fill="none" stroke="#0a2a66" stroke-linecap="round" stroke-linejoin="round" stroke-width="13">
    <path d="M76 28H46c-10 0-18 8-18 18v30" />
    <path d="M180 28h30c10 0 18 8 18 18v30" />
    <path d="M76 228H46c-10 0-18-8-18-18v-30" />
    <path d="M180 228h30c10 0 18-8 18-18v-30" />
  </g>

  <g fill="#0a2a66">
    <rect x="67" y="68" width="53" height="53" rx="11" />
    <rect x="67" y="131" width="53" height="53" rx="11" />
    <rect x="130" y="131" width="53" height="53" rx="11" />
  </g>

  <rect x="130" y="68" width="53" height="53" rx="11" fill="#10c5e8" transform="rotate(4 156.5 94.5)" />
  <g fill="none" stroke-linecap="round" stroke-width="7">
    <path d="M193 86h22" stroke="#10c5e8" />
    <path d="M191 101h25" stroke="#7758e8" />
    <path d="M193 116h19" stroke="#7758e8" />
  </g>
  </g>
  <text x="480" y="325" fill="#f8fafc" font-family="Inter, ui-sans-serif, system-ui, -apple-system, BlinkMacSystemFont, 'Segoe UI', sans-serif" font-size="120" font-weight="750" letter-spacing="-4">
    <tspan>Vi</tspan><tspan fill="#10c5e8">set</tspan>
  </text>
  <text x="484" y="379" fill="#cbd5e1" font-family="Inter, ui-sans-serif, system-ui, -apple-system, BlinkMacSystemFont, 'Segoe UI', sans-serif" font-size="19" font-weight="650" letter-spacing="2.2">
    REPRODUCIBLE BROWSER CAPTURES AS CODE
  </text>
</svg>
